<svg width="400" height="400" xmlns="http://www.w3.org/2000/svg" preserveAspectRatio="xMidYMid"><title>background</title><path fill="none" d="M-1 -1H401V401H-1z"/><g><title>Layer 1</title><g stroke="null"><ellipse ry="198.5" rx="198.5" cy="200.3" cx="200" stroke-opacity="null" stroke-width="null" fill="#fff"/><path fill="#544f4a" d="M230.172 352.064c-15.559 0-30.685-.03-45.813.029-2.486.007-2.64-.985-2.066-3.063 3.055-11.073 2.46-22.423 2.382-33.729-.017-2.404-.347-4.678-1.936-6.548-10.266-12.046-13.77-26.603-16.006-41.776-2.757-18.69-7.97-36.686-16.735-53.538-.533-1.027-.975-2.111-1.392-3.196-.944-2.448-1.607-5.168 1.08-6.699 2.753-1.567 5.709-.766 7.551 1.8 2.32 3.233 4.23 6.76 6.283 10.182 3.34 5.562 6.48 11.257 10.588 16.308 1.19 1.466 2.721 3.71 4.788 2.588 1.77-.964.62-3.31.35-5.07-2.311-15.125-3.991-30.326-5.15-45.581-.269-3.516.577-6.913 4.771-7.563 4.112-.64 4.777 2.694 5.545 5.641 3.56 13.67 7.08 27.344 10.71 40.993.401 1.504.46 4.037 2.3 4.002 2.211-.043 2.073-2.643 2.4-4.333 1.748-9.007 1.762-18.19 2.704-27.284.876-8.431 1.518-16.89 2.067-25.351.284-4.366 2.375-6.94 6.65-7.266 3.626-.275 5.576 2.688 5.567 7.876-.025 16.645-.107 33.289-.067 49.932.007 2.55-.61 6.424 2.176 6.946 2.412.454 3.018-3.424 3.907-5.652 5.186-12.992 12.055-25.195 17.694-37.975 1.467-3.327 4.32-4.223 7.445-3.1 4.082 1.472 3.331 4.997 2.383 8.043a4585.9 4585.9 0 0 1-15.073 47.519c-1.694 5.234-1.9 10.423-.544 15.71.208.805.371 1.63.69 2.392 1.008 2.407 1.44 5.63 4.518 6.046 2.78.374 4.144-2.403 5.744-4.238 4.556-5.217 8.262-11.456 16.069-12.54 3.328-.464 6.616-.72 9.882.312 4.256 1.35 4.817 3.168 1.72 6.25-1.638 1.635-3.443 3.206-5.424 4.374-8.863 5.205-14.578 12.873-18.386 22.271-1.995 4.925-4.473 9.655-6.868 14.406-2.037 4.033-4.328 8.33-7.945 10.759-6.81 4.576-7.419 11.074-7.738 18.135-.483 10.666-.16 21.236 3.179 31.986v.002z"/><path fill="#5239b5" d="M113.687 183.244c4.859 5.658 9.716 11.314 14.6 17.006-10.56 4.116-24.34.23-31.743-9.125-8.08-10.219-10.927-22.21-11.252-34.969-.041-1.53-.019-3 2.126-3.249 17.138-1.998 45.897 12.91 46.166 35.623.007.833.088 1.676-.03 2.494-.292 2.078.102 5.033-1.764 5.814-1.865.785-3.013-2.064-4.454-3.321-4.253-3.714-8.41-7.54-12.603-11.326-1.275-.568-1.338.064-1.046 1.053m133.8-34.596c-6.96 4.45-11.724 11.091-17.355 16.929-5.634-8.207-3.055-23.42 5.524-31.858 7.598-7.474 17.025-11.467 27.338-13.476 8.588-1.672 8.771-1.474 8.776 7.492.009 11.98-4.087 22.523-11.797 31.548-6.964 8.152-15.857 11.611-27.35 9.751 5.179-7.106 10.024-13.745 14.864-20.386m61.498 107.881c-5.993-4.909-13.304-7.22-20.153-10.54 5.675-7.413 19.989-9.55 30.016-4.36 8.878 4.596 15.187 11.835 19.984 20.445 3.995 7.17 3.869 7.39-4.122 10.007-10.678 3.502-21.271 2.923-31.568-1.32-9.298-3.833-14.973-10.753-16.665-21.543l22.509 7.311M194.903 125.1c-2.422 7.527-3.39 15.236-4.26 22.965-.14 1.257.507 3.012-.896 3.642-1.63.733-2.697-.94-3.711-1.875-8.504-7.847-11.292-17.335-7.805-28.471 3.257-10.419 9.531-18.882 17.289-26.378 1.614-1.56 2.818-1.93 4.383.134 9.586 12.649 14.315 26.555 10.776 42.45-1.538 6.892-5.929 11.724-12.414 14.643-2.725 1.229-4.042 1.477-3.81-2.492.485-8.184 1.866-16.369.448-24.619m-31.906 55.343c-2.492-7.438-4.891-14.592-7.29-21.743-.79 6.519 1.302 12.43 2.534 18.488.255 1.263 1.217 2.801.025 3.722-1.138.882-2.546-.274-3.702-.792-10.397-4.666-16.68-12.477-17.67-24.009-.92-10.777 2.025-20.745 6.946-30.216.802-1.541 1.485-2.836 3.75-1.775 15.621 7.318 28.271 29.826 22.75 45.592-1.427 4.085-3.26 7.943-7.342 10.733m-41.249 55.702c6.15 5.814 12.301 11.626 18.643 17.625-6.084 3.762-14.035 3.965-20.648-.013-14.6-8.775-21.962-22.169-23.377-38.994-.203-2.42.755-3.171 3.216-2.915 12.633 1.316 24.484 4.83 34.667 12.657 7.918 6.084 11.091 14.275 9.518 24.213-.152.965.03 2.208-1.08 2.59-1.131.391-1.68-.8-2.364-1.438-5.588-5.234-11.377-10.225-17.571-14.727-.257-.308-.545-.386-.818-.177-.429.325-.557.718-.186 1.178m6.946-103.652c-8.23-3.504-14.907-9.262-23.391-11.114 6.393 5.637 13.57 10.07 20.748 14.507-4.242 5.91-17.439 7.246-24.316 3.147-12.152-7.243-18.236-18.927-22.709-31.714-.663-1.898.388-2.7 2.097-3.153 14.875-3.941 28.804-2.206 40.828 7.832 6.117 5.105 8.18 12.178 6.743 20.495m125.801 89.956c8.267-2.868 16.384-4.698 23.82-8.461-8.28.512-16.103 3.32-24.716 4.911 1.645-7.896 5.975-13.104 12.794-15.852 12.395-4.995 24.706-4.224 36.699 1.676 1.813.894 3.246 1.742 1.377 4.008-7.966 9.659-16.868 18.073-29.56 20.921-7.968 1.79-14.652-.85-20.414-7.203M236.32 91.051c-3.219 6.425-4.455 13.43-6.336 20.248-6.353-2.768-10.575-11.242-8.99-18.602 2.495-11.57 10.112-19.56 19.117-26.517 1.817-1.404 2.63-.35 3.504 1.018 6.422 10.018 8.77 20.74 5.345 32.351-1.759 5.956-5.779 9.994-11.51 12.313-3.089 1.25-4.32.385-3.584-3.079 1.236-5.829 2.575-11.656 2.454-17.732m-78.726 9.3c2.372 5.084 4.748 10.168 7.139 15.29-7.81 1.525-15.792-2.868-19.27-10.734-3.94-8.898-3.463-18.136-1.74-27.435.373-2.001 1.31-2.43 3.147-1.805 11.388 3.866 20.436 10.475 24.906 22.024 2.32 5.99 1.321 11.721-3.376 17.241l-9.783-15.626c-1.233-.527-1.29.1-1.023 1.045m160.25 78.377c6.83-2.81 13.606-4.491 20.578-9.046-8.476.27-15.002 3.278-21.896 4.63-.01-7.29 3.233-12.48 10.12-15.009 10.585-3.89 20.91-2.654 30.862 2.51 1.912.99 2.251 2.098 1.172 3.909-4.412 7.404-9.71 13.966-17.566 17.943-8.335 4.218-16.48 2.513-23.27-4.937m-174.05 110.457c3.747-1.323 7.472-2.713 11.253-3.93 1.31-.423 2.74-2.041 4.058-.674 1.18 1.224.009 2.859-.336 4.241-1.598 6.409-5.865 10.339-12.085 11.973-7.935 2.09-15.777.983-23.542-1.29-2.304-.675-2.957-1.75-1.989-3.948 4.458-10.115 11.348-17.459 22.575-19.835 5.683-1.202 10.255.958 14.724 4.893l-15.625 7.573c-.286.252-.383.545-.197.83.312.476.73.434 1.165.167m-74.463-59.904c6.142 2.155 12.124.517 18.057 1.037-1.092 6.39-6.611 11.338-13.417 11.794-9.864.663-18.052-3.598-25.773-9.107-1.546-1.105-1.52-2.08-.44-3.695 5.442-8.133 20.427-13.94 29.694-11.334 4.724 1.328 8.116 4.165 10.422 9.102l-18.543 2.203m212.236-55.183c-3.42 2.599-6.844 5.195-10.292 7.814-2.466-6.692.315-14.819 6.861-19.486 6.973-4.978 14.979-6.816 23.417-7.28 2.805-.154 3.501.99 3.008 3.5-2.031 10.312-6.629 19.133-15.386 25.256-5.054 3.531-10.584 4.474-16.73.949 3.554-3.373 6.88-6.533 10.204-9.69.216-.429.646-1.161.537-1.272-.534-.552-1.065.12-1.62.209m-206.054 6.544c-5.956 1.918-11.79 3.071-18.089 6.248 6.037.898 10.66-1.016 15.418-1.634 1.197-.155 2.708-1.449 3.637-.057.769 1.152-.207 2.56-.69 3.782-2.025 5.104-6.058 7.978-11.185 8.986-8.438 1.66-16.52.385-24.096-3.907-2.71-1.537-3.524-3.02-1.4-5.792 3.998-5.222 8.457-9.894 14.367-12.893 8.3-4.207 15.644-2.492 22.038 5.268m225.998-54.56a12526.15 12526.15 0 0 1-12.263 6.44c-2.086-6.125.479-12.866 6.493-16.279 7.56-4.291 15.787-4.633 24.187-3.6 2.277.28 3.216 1.35 2.603 3.673-2.395 9.08-7.146 16.444-15.667 20.832-5.621 2.893-11.173 2.49-16.725-1.478l12.974-9.382c-.378-1.274-1.06-.189-1.6-.207m-26.309 159.49c-4.888-2.25-9.776-4.5-14.663-6.752 4.176-6.281 12.223-8.7 19.65-5.57 9.337 3.932 15.499 11.29 20.513 19.782 1.359 2.304 1.041 3.93-1.542 5.013-10.09 4.241-20.266 5.087-30.375.333-6.667-3.134-10.241-8.55-10.52-16.498l17.884 5.315c.909-1.255-.577-1.113-.947-1.623M72.61 154.593c-4.635-1.256-8.247-4.41-14.067-4.39l13.406 7.121c-4.69 4.212-9.6 4.882-14.762 3.07-8.516-2.991-14.031-9.158-17.542-17.341-1.005-2.345-.32-3.324 2.016-3.794 6.77-1.361 13.539-1.82 20.245.179 7.108 2.119 10.947 7.53 10.704 15.155m39.455 111.565c-3.39.374-6.129.643-8.86.993-2.556.325-5.1.736-7.535 1.825 4.464 0 8.926.07 13.39-.024 2.848-.055 3.178 1.004 1.773 3.216-2.59 4.071-6.394 6.337-11.062 6.809-8.297.841-15.72-1.533-22.344-6.62-2.317-1.778-2.39-3.099-.089-4.963 6.022-4.863 12.302-9.112 20.373-9.503 6.182-.297 10.748 2.335 14.354 8.268M283.201 89.91c-6.028 2.233-10.208 5.492-15.06 8.16-1.566-6.388.613-10.88 5.347-14.14 6.32-4.357 13.394-5.512 20.935-4.241 2.628.445 3.773 1.357 2.82 4.295-1.868 5.762-4.25 11.154-8.649 15.482-4.241 4.176-9.243 4.902-14.73 3.327-1.058-.306-2.495-.895-2.833-1.73-.529-1.31 1.18-1.703 2.012-2.374 3.162-2.552 6.751-4.61 10.158-8.78m37.229 121.848c5.201-.785 9.996 1.818 15.62.555-5.019-2.332-10.002-2.377-14.661-3.626 2.895-6.912 10.406-9.856 18.553-7.062 6.657 2.284 11.928 6.617 16.59 11.8 1.614 1.793 1.842 2.975-.377 4.487-7.806 5.315-16.224 7.589-25.471 5-5.48-1.537-9.163-5.098-10.254-11.154M185.6 78.405c.63 2.41 3.229 3.731 3.622 6.314-7.3 1.45-11.668-1.134-14.796-8.845-1.902-4.686-4.038-11.035-.613-14.044 3.433-3.01 8.994 1.013 13.05 3.44 6.777 4.058 8.338 9.36 5.44 17.213-2.72-.877-3.34-3.966-5.551-5.277-1.412-.586-1.56.04-1.152 1.199m-58.774 19.687c-6.739.006-10.342-2.412-12.133-7.963-1.683-5.227-1.126-10.473.168-15.696.415-1.67 1.172-2.514 3.143-2.175 6.408 1.105 14.913 10.225 15.287 16.758.172 3.033-.45 5.31-3.154 7.6-2.107-3.662-4.27-6.667-6.306-10.208-.383 4.228 2.137 7.543 2.996 11.684"/></g><g stroke="null"><ellipse ry="198" rx="197.5" cy="200.8" cx="200" stroke-opacity="null" stroke-width="null" fill="#fff"/><path fill="#544f4a" d="M230.02 352.181c-15.48 0-30.53-.029-45.582.03-2.474.007-2.627-.983-2.056-3.056 3.04-11.045 2.447-22.367 2.37-33.643-.017-2.399-.345-4.667-1.926-6.532-10.214-12.016-13.7-26.536-15.926-41.67-2.742-18.644-7.93-36.595-16.65-53.404-.53-1.025-.97-2.106-1.386-3.188-.939-2.442-1.598-5.155 1.075-6.682 2.74-1.563 5.68-.764 7.514 1.795 2.308 3.225 4.208 6.743 6.25 10.157 3.324 5.547 6.449 11.228 10.535 16.267 1.184 1.462 2.708 3.701 4.764 2.58 1.76-.96.617-3.3.349-5.055-2.3-15.089-3.971-30.251-5.125-45.467-.267-3.508.574-6.896 4.747-7.545 4.092-.637 4.753 2.688 5.518 5.627 3.541 13.635 7.045 27.275 10.656 40.89.399 1.5.458 4.027 2.289 3.992 2.2-.043 2.061-2.637 2.387-4.322 1.74-8.984 1.753-18.145 2.69-27.215.871-8.41 1.511-16.848 2.056-25.287.284-4.355 2.364-6.924 6.618-7.248 3.607-.274 5.547 2.682 5.538 7.856-.025 16.603-.106 33.205-.066 49.807.006 2.543-.607 6.407 2.164 6.928 2.4.452 3.004-3.416 3.888-5.638 5.16-12.959 11.994-25.132 17.605-37.88 1.46-3.318 4.299-4.212 7.408-3.09 4.061 1.466 3.314 4.983 2.37 8.021a4562.798 4574.35 0 0 1-14.997 47.4c-1.685 5.22-1.89 10.396-.541 15.67.207.803.37 1.626.687 2.386 1.003 2.401 1.433 5.617 4.495 6.03 2.765.374 4.123-2.396 5.715-4.226 4.533-5.205 8.22-11.428 15.988-12.509 3.311-.462 6.583-.719 9.832.31 4.235 1.348 4.793 3.161 1.712 6.236-1.63 1.63-3.426 3.197-5.397 4.362-8.818 5.192-14.505 12.84-18.293 22.215-1.985 4.913-4.45 9.631-6.834 14.37-2.027 4.022-4.307 8.31-7.905 10.732-6.776 4.564-7.381 11.046-7.699 18.089-.481 10.639-.159 21.183 3.163 31.906v.001z"/><path fill="#5239b5" d="M114.122 183.787c4.834 5.643 9.667 11.285 14.527 16.963-10.508 4.106-24.219.23-31.583-9.102-8.04-10.193-10.872-22.155-11.196-34.88-.041-1.527-.019-2.993 2.116-3.242 17.051-1.992 45.665 12.877 45.932 35.534.008.83.088 1.672-.028 2.487-.291 2.073.1 5.02-1.756 5.8-1.856.783-2.998-2.06-4.432-3.313-4.232-3.705-8.367-7.521-12.54-11.298-1.268-.566-1.33.064-1.04 1.051m133.126-34.508c-6.925 4.437-11.665 11.062-17.268 16.885-5.605-8.186-3.04-23.36 5.496-31.778 7.56-7.454 16.94-11.437 27.201-13.441 8.545-1.668 8.726-1.47 8.731 7.472.01 11.95-4.066 22.467-11.737 31.47-6.93 8.13-15.777 11.581-27.213 9.726 5.154-7.088 9.974-13.71 14.79-20.334m61.188 107.608c-5.963-4.896-13.237-7.202-20.051-10.513 5.646-7.395 19.888-9.525 29.864-4.35 8.833 4.585 15.11 11.806 19.883 20.395 3.975 7.152 3.85 7.37-4.1 9.982-10.625 3.492-21.165 2.915-31.41-1.318-9.25-3.823-14.897-10.726-16.581-21.488l22.396 7.292m-113.508-131.1c-2.41 7.51-3.373 15.2-4.238 22.908-.14 1.255.504 3.005-.892 3.633-1.621.732-2.684-.937-3.693-1.87-8.46-7.827-11.234-17.291-7.766-28.4 3.242-10.392 9.484-18.834 17.202-26.311 1.606-1.555 2.804-1.925 4.361.134 9.538 12.617 14.243 26.488 10.722 42.343-1.53 6.875-5.899 11.694-12.352 14.606-2.71 1.226-4.021 1.473-3.79-2.485.482-8.164 1.857-16.328.446-24.557m-31.746 55.203c-2.479-7.42-4.866-14.555-7.252-21.688-.787 6.502 1.295 12.4 2.52 18.441.255 1.26 1.211 2.795.025 3.712-1.132.88-2.533-.272-3.683-.79-10.345-4.653-16.596-12.445-17.58-23.948-.917-10.75 2.013-20.692 6.91-30.14.798-1.537 1.477-2.828 3.73-1.77 15.544 7.3 28.13 29.75 22.637 45.477-1.42 4.075-3.245 7.923-7.305 10.706m-41.041 55.562c6.119 5.8 12.238 11.596 18.548 17.58-6.053 3.753-13.964 3.955-20.543-.013-14.528-8.753-21.852-22.113-23.26-38.896-.202-2.413.75-3.163 3.2-2.907 12.57 1.312 24.36 4.818 34.493 12.625 7.877 6.068 11.035 14.239 9.47 24.152-.152.962.03 2.203-1.076 2.584-1.125.39-1.672-.798-2.351-1.435-5.56-5.22-11.32-10.199-17.483-14.69-.256-.307-.542-.385-.814-.177-.426.325-.554.717-.184 1.176m6.91-103.391c-8.188-3.495-14.832-9.24-23.273-11.086 6.361 5.622 13.502 10.044 20.644 14.47-4.221 5.896-17.351 7.228-24.194 3.139-12.091-7.225-18.144-18.879-22.594-31.633-.66-1.894.386-2.695 2.086-3.146 14.8-3.93 28.658-2.2 40.623 7.812 6.085 5.093 8.138 12.148 6.708 20.444m125.168 89.73c8.224-2.862 16.301-4.687 23.7-8.44-8.239.51-16.022 3.31-24.592 4.898 1.636-7.876 5.945-13.07 12.729-15.812 12.333-4.982 24.582-4.213 36.514 1.672 1.805.891 3.23 1.737 1.37 3.998-7.925 9.634-16.782 18.027-29.41 20.868-7.928 1.785-14.578-.847-20.311-7.184M236.137 91.826c-3.203 6.409-4.433 13.396-6.304 20.197-6.321-2.76-10.522-11.214-8.946-18.555 2.483-11.54 10.062-19.511 19.022-26.45 1.808-1.401 2.617-.349 3.486 1.015 6.39 9.993 8.726 20.689 5.318 32.27-1.75 5.941-5.75 9.969-11.453 12.282-3.072 1.246-4.297.383-3.565-3.071 1.23-5.814 2.562-11.627 2.442-17.688m-78.33 9.276c2.36 5.072 4.724 10.143 7.103 15.252-7.77 1.521-15.712-2.86-19.173-10.707-3.919-8.876-3.445-18.09-1.73-27.366.37-1.996 1.304-2.423 3.13-1.8 11.332 3.856 20.334 10.448 24.782 21.969 2.307 5.975 1.314 11.691-3.36 17.197l-9.733-15.587c-1.228-.525-1.284.1-1.018 1.042m159.443 78.18c6.794-2.803 13.537-4.48 20.474-9.023-8.433.269-14.926 3.27-21.786 4.619-.01-7.273 3.217-12.449 10.07-14.972 10.53-3.88 20.803-2.647 30.706 2.505 1.902.986 2.24 2.092 1.166 3.898-4.39 7.386-9.66 13.93-17.478 17.898-8.292 4.208-16.397 2.507-23.152-4.924M144.078 289.46c3.727-1.32 7.434-2.706 11.195-3.92 1.305-.422 2.727-2.036 4.038-.672 1.174 1.22.009 2.851-.335 4.23-1.59 6.393-5.834 10.313-12.024 11.943-7.895 2.084-15.697.98-23.423-1.286-2.292-.674-2.942-1.747-1.979-3.939 4.436-10.09 11.291-17.415 22.462-19.785 5.654-1.199 10.203.956 14.65 4.88l-15.547 7.555c-.285.251-.381.543-.196.827.31.475.726.434 1.159.167M69.99 229.708c6.112 2.15 12.063.515 17.967 1.035-1.088 6.373-6.579 11.309-13.35 11.764-9.815.661-17.96-3.59-25.644-9.084-1.537-1.103-1.51-2.074-.436-3.686 5.413-8.112 20.323-13.905 29.543-11.306 4.7 1.325 8.076 4.155 10.37 9.08l-18.45 2.197m211.167-55.044c-3.403 2.592-6.81 5.182-10.24 7.794-2.454-6.675.313-14.781 6.827-19.436 6.938-4.966 14.903-6.799 23.298-7.263 2.792-.153 3.484.988 2.993 3.491-2.02 10.287-6.595 19.086-15.308 25.193-5.028 3.523-10.53 4.463-16.646.947 3.536-3.364 6.846-6.517 10.153-9.666.214-.428.642-1.158.534-1.269-.532-.55-1.06.121-1.612.209M76.14 181.191c-5.927 1.913-11.731 3.064-17.999 6.233 6.007.895 10.606-1.013 15.34-1.63 1.191-.155 2.695-1.445 3.62-.057.764 1.149-.207 2.553-.688 3.773-2.014 5.091-6.027 7.957-11.128 8.963-8.395 1.656-16.437.383-23.974-3.897-2.698-1.534-3.507-3.013-1.394-5.778 3.978-5.208 8.415-9.869 14.296-12.86 8.257-4.197 15.564-2.486 21.927 5.254M301 126.77c-4.066 2.144-8.132 4.285-12.201 6.424-2.076-6.11.476-12.833 6.46-16.237 7.523-4.28 15.707-4.621 24.065-3.59 2.266.279 3.2 1.345 2.59 3.663-2.383 9.056-7.11 16.402-15.589 20.78-5.592 2.884-11.116 2.483-16.64-1.475l12.908-9.358c-.376-1.271-1.054-.189-1.592-.207m-26.175 159.088c-4.865-2.244-9.727-4.488-14.59-6.734 4.155-6.266 12.162-8.68 19.551-5.557 9.29 3.922 15.42 11.261 20.41 19.732 1.352 2.298 1.036 3.92-1.535 5.001-10.04 4.23-20.164 5.074-30.222.332-6.633-3.127-10.19-8.529-10.467-16.456l17.794 5.301c.904-1.252-.574-1.11-.941-1.619M73.25 155.208c-4.61-1.253-8.204-4.4-13.995-4.378l13.338 7.103c-4.667 4.201-9.552 4.869-14.687 3.062-8.473-2.984-13.96-9.136-17.454-17.298-1-2.338-.318-3.315 2.006-3.784 6.736-1.358 13.47-1.816 20.142.178 7.073 2.114 10.892 7.512 10.65 15.117m39.257 111.284c-3.373.373-6.098.641-8.815.99-2.543.325-5.074.735-7.498 1.821 4.442 0 8.882.07 13.322-.024 2.834-.055 3.163 1.002 1.765 3.208-2.576 4.06-6.362 6.321-11.006 6.791-8.255.84-15.641-1.528-22.232-6.603-2.305-1.773-2.377-3.09-.088-4.95 5.992-4.851 12.24-9.089 20.27-9.479 6.151-.296 10.695 2.329 14.282 8.247M282.782 90.687c-5.998 2.228-10.157 5.478-14.985 8.139-1.557-6.372.61-10.852 5.32-14.103 6.29-4.347 13.328-5.499 20.83-4.232 2.615.444 3.755 1.354 2.805 4.285-1.858 5.747-4.228 11.125-8.604 15.443-4.22 4.166-9.197 4.89-14.655 3.318-1.054-.305-2.483-.892-2.82-1.724-.526-1.308 1.174-1.7 2.002-2.369 3.146-2.546 6.717-4.599 10.107-8.757m37.04 121.54c5.176-.783 9.947 1.813 15.543.554-4.994-2.326-9.952-2.371-14.588-3.617 2.88-6.894 10.354-9.831 18.46-7.044 6.623 2.278 11.867 6.6 16.507 11.77 1.605 1.788 1.832 2.967-.376 4.476-7.766 5.301-16.142 7.57-25.343 4.987-5.452-1.534-9.116-5.085-10.202-11.126M185.673 79.212c.626 2.405 3.212 3.722 3.603 6.298-7.263 1.446-11.61-1.131-14.722-8.823-1.892-4.674-4.017-11.007-.609-14.008 3.416-3.002 8.948 1.01 12.985 3.43 6.742 4.049 8.295 9.338 5.412 17.17-2.707-.874-3.323-3.955-5.524-5.263-1.404-.584-1.55.04-1.146 1.196m-58.477 19.637c-6.705.007-10.29-2.406-12.072-7.942-1.674-5.215-1.12-10.447.166-15.657.414-1.665 1.167-2.508 3.128-2.17 6.376 1.103 14.838 10.2 15.21 16.717.171 3.024-.448 5.296-3.138 7.58-2.097-3.653-4.249-6.65-6.274-10.182-.381 4.217 2.126 7.524 2.98 11.654"/></g></g></svg>